<?xml version="1.0" encoding="UTF-8" standalone="no"?>
<svg
   xmlns:dc="http://purl.org/dc/elements/1.1/"
   xmlns:cc="http://creativecommons.org/ns#"
   xmlns:rdf="http://www.w3.org/1999/02/22-rdf-syntax-ns#"
   xmlns:svg="http://www.w3.org/2000/svg"
   xmlns="http://www.w3.org/2000/svg"
   xmlns:sodipodi="http://sodipodi.sourceforge.net/DTD/sodipodi-0.dtd"
   xmlns:inkscape="http://www.inkscape.org/namespaces/inkscape"
   width="98px"
   height="96px"
   viewBox="0 0 98 96"
   version="1.1"
   id="svg2"
   inkscape:version="0.48.5 r10040"
   sodipodi:docname="global_illustrations_benefits_complete-privacy.svg">
  <metadata
     id="metadata22">
    <rdf:RDF>
      <cc:Work
         rdf:about="">
        <dc:format>image/svg+xml</dc:format>
        <dc:type
           rdf:resource="http://purl.org/dc/dcmitype/StillImage" />
      </cc:Work>
    </rdf:RDF>
  </metadata>
  <sodipodi:namedview
     pagecolor="#ffffff"
     bordercolor="#666666"
     borderopacity="1"
     objecttolerance="10"
     gridtolerance="10"
     guidetolerance="10"
     inkscape:pageopacity="0"
     inkscape:pageshadow="2"
     inkscape:window-width="1858"
     inkscape:window-height="1057"
     id="namedview20"
     showgrid="false"
     inkscape:zoom="2.4583333"
     inkscape:cx="-14.457627"
     inkscape:cy="48"
     inkscape:window-x="-8"
     inkscape:window-y="-8"
     inkscape:window-maximized="1"
     inkscape:current-layer="g12" />
  <!-- Generator: Sketch 46.2 (44496) - http://www.bohemiancoding.com/sketch -->
  <title
     id="title4">global/illustrations/benefits/complete-privacy</title>
  <desc
     id="desc6">Created with Sketch.</desc>
  <defs
     id="defs8" />
  <g
     stroke="none"
     stroke-width="1"
     fill="none"
     fill-rule="evenodd"
     id="g10">
    <g
       fill-rule="nonzero"
       id="g12">
      <path
         d="M11,79 L29,79 L29,83 L11,83 L11,79 Z M7,6 L7,11 L3,11 L3,2 L5,2 L12,2 L12,6 L7,6 Z M72,6 L67,6 L67,2 L74,2 L76,2 L76,11 L72,11 L72,6 Z M7,48 L12,48 L12,52 L5,52 L3,52 L3,43 L7,43 L7,48 Z M72,48 L72,43 L76,43 L76,52 L74,52 L67,52 L67,48 L72,48 Z"
         fill="#D0D1D2"
         id="path14" />
      <path
         d="M4,74.3505 L4,88 L56.4571429,88 L56.4571429,92 L0,92 L0,74.3505 C0,69.9825028 2.61459724,66.046217 6.68055958,64.2939794 C15.5638811,60.4632636 27.330831,58 42.1142857,58 C47.1204009,58 51.8282404,58.2816069 56.2409228,58.817064 L58.2263588,59.0579868 L57.7445132,63.0288588 L55.7590772,62.787936 C51.5071238,62.2719826 46.960181,62 42.1142857,62 C27.8794065,62 16.6510325,64.3505195 8.26404638,67.9672027 C5.65818255,69.0902069 4,71.5866068 4,74.3505 Z M37,68 C37,66.8954305 37.8954305,66 39,66 C40.1045695,66 41,66.8954305 41,68 C41,69.1045695 40.1045695,70 39,70 C37.8954305,70 37,69.1045695 37,68 Z M37,75 C37,73.8954305 37.8954305,73 39,73 C40.1045695,73 41,73.8954305 41,75 C41,76.1045695 40.1045695,77 39,77 C37.8954305,77 37,76.1045695 37,75 Z M37,82 C37,80.8954305 37.8954305,80 39,80 C40.1045695,80 41,80.8954305 41,82 C41,83.1045695 40.1045695,84 39,84 C37.8954305,84 37,83.1045695 37,82 Z M39.5,53 C24.8644541,53 13,41.1355459 13,26.5 C13,11.8644541 24.8644541,0 39.5,0 C54.1355459,0 66,11.8644541 66,26.5 C66,41.1355459 54.1355459,53 39.5,53 Z M39.5,49 C51.9264069,49 62,38.9264069 62,26.5 C62,14.0735931 51.9264069,4 39.5,4 C27.0735931,4 17,14.0735931 17,26.5 C17,38.9264069 27.0735931,49 39.5,49 Z"
         fill="#151922"
         id="path16" />
      <path
         d="M92.0370309,60 L85.4891509,66.54788 C83.3632159,65.5274312 80.9821686,64.9321694 78.5160839,64.9321694 C67.971446,64.9321694 59.4677057,76.8374057 59.1275561,77.2625927 C58.9574813,77.4326675 58.9574813,77.7728172 59.1275561,78.0279294 C59.2976309,78.2830416 62.1038652,82.1947621 66.3557353,85.5112208 L59.8928927,91.9740634 L62.0188278,94.0999985 L94.0779286,62.0408977 L92.0370309,60 Z M71.1178299,77.6877798 C71.1178299,73.6059844 74.4342886,70.2895257 78.5160839,70.2895257 C79.4514953,70.2895257 80.3869068,70.4596005 81.2372808,70.7997501 L71.6280543,80.3239392 C71.2879047,79.4735652 71.1178299,78.6231912 71.1178299,77.6877798 Z M97.9046117,78.0279294 C97.5644621,78.5381538 88.9756844,90.3583528 78.5160839,90.3583528 C76.1350366,90.3583528 73.9240642,89.7630909 71.8831665,88.8276795 L76.1350366,84.5758094 C76.9003733,84.8309216 77.6657099,85.0009964 78.5160839,85.0009964 C82.5978792,85.0009964 85.9143379,81.6845377 85.9143379,77.6027424 C85.9143379,76.7523683 85.7442631,75.9870317 85.4891509,75.2216951 L90.8465073,69.8643387 C95.01334,73.1807974 97.7345369,76.9224431 97.9046117,77.1775553 C98.0746865,77.517705 98.0746865,77.7728172 97.9046117,78.0279294 Z"
         fill="#F64F64"
         id="path18"
         style="fill:#8ca624;fill-opacity:1" />
    </g>
  </g>
</svg>
