<?xml version="1.0" encoding="UTF-8" standalone="no"?>
<svg
   xmlns:dc="http://purl.org/dc/elements/1.1/"
   xmlns:cc="http://creativecommons.org/ns#"
   xmlns:rdf="http://www.w3.org/1999/02/22-rdf-syntax-ns#"
   xmlns:svg="http://www.w3.org/2000/svg"
   xmlns="http://www.w3.org/2000/svg"
   xmlns:sodipodi="http://sodipodi.sourceforge.net/DTD/sodipodi-0.dtd"
   xmlns:inkscape="http://www.inkscape.org/namespaces/inkscape"
   width="128px"
   height="96px"
   viewBox="0 0 128 96"
   version="1.1"
   id="svg2"
   inkscape:version="0.48.5 r10040"
   sodipodi:docname="global_illustrations_features_p2p-friendly.svg">
  <metadata
     id="metadata22">
    <rdf:RDF>
      <cc:Work
         rdf:about="">
        <dc:format>image/svg+xml</dc:format>
        <dc:type
           rdf:resource="http://purl.org/dc/dcmitype/StillImage" />
      </cc:Work>
    </rdf:RDF>
  </metadata>
  <sodipodi:namedview
     pagecolor="#ffffff"
     bordercolor="#666666"
     borderopacity="1"
     objecttolerance="10"
     gridtolerance="10"
     guidetolerance="10"
     inkscape:pageopacity="0"
     inkscape:pageshadow="2"
     inkscape:window-width="1858"
     inkscape:window-height="1057"
     id="namedview20"
     showgrid="false"
     inkscape:zoom="2.4583333"
     inkscape:cx="0.54237288"
     inkscape:cy="48"
     inkscape:window-x="-8"
     inkscape:window-y="-8"
     inkscape:window-maximized="1"
     inkscape:current-layer="g12" />
  <!-- Generator: Sketch 46.2 (44496) - http://www.bohemiancoding.com/sketch -->
  <title
     id="title4">global/illustrations/features/p2p-friendly</title>
  <desc
     id="desc6">Created with Sketch.</desc>
  <defs
     id="defs8" />
  <g
     stroke="none"
     stroke-width="1"
     fill="none"
     fill-rule="evenodd"
     id="g10">
    <g
       id="g12">
      <path
         d="M121,60.5292408 L121,38 C121,37.4477153 120.552285,37 120,37 L117,37 L117,34 C117,33.6575342 116.96557,33.3231099 116.899982,33 L120,33 C122.761424,33 125,35.2385763 125,38 L125,63.3472544 C123.78555,62.2602921 122.44385,61.3125873 121,60.5292408 L121,60.5292408 Z M85,29 L81,29 L81,9 C81,8.44771525 80.5522847,8 80,8 L77,8 L77,5 C77,4.65753416 76.9655697,4.32310994 76.8999819,4 L80,4 C82.7614237,4 85,6.23857625 85,9 L85,29 L85,29 Z M89,5 L93,5 L93,9 L89,9 L89,5 Z M97,5 L101,5 L101,9 L97,9 L97,5 Z M105,5 L109,5 L109,9 L105,9 L105,5 Z M105,13 L109,13 L109,17 L105,17 L105,13 Z M105,21 L109,21 L109,25 L105,25 L105,21 Z M7,80 L11,80 L11,84 L7,84 L7,80 Z M15,80 L19,80 L19,84 L15,84 L15,80 Z M7,64 L11,64 L11,68 L7,68 L7,64 Z M7,72 L11,72 L11,76 L7,76 L7,72 Z M23,80 L27,80 L27,84 L23,84 L23,80 Z"
         fill="#D0D1D2"
         id="path14" />
      <path
         d="M90.8769134,85.0243977 L88.9303084,86.7999486 C88.7451883,86.9688017 88.5034252,87.0620074 88.2528658,87.0611198 L71.4121373,87.00146 C71.3952157,87.0014001 71.3783396,87.0009114 71.3615235,87 L69.4142136,87 C69.1489971,87 68.8946432,86.8946432 68.7071068,86.7071068 L66.2928932,84.2928932 C66.1053568,84.1053568 65.8510029,84 65.5857864,84 L36,84 C35.4477153,84 35,84.4477153 35,85 L35,89 C35,89.5522847 35.4477153,90 36,90 L93.1079949,90 C94.0085507,91.4616782 95.0832041,92.8046453 96.3030518,94 L36,94 C33.2385763,94 31,91.7614237 31,89 L31,85 C31,82.2385763 33.2385763,80 36,80 L41.1000181,80 C41.0344303,79.6768901 41,79.3424658 41,79 L41,60 L5,60 C2.23857625,60 3.38176876e-16,57.7614237 0,55 L0,50 C-2.11453371e-15,47.2385763 2.23857625,45 5,45 L6.10001812,45 C6.03443026,44.6768901 6,44.3424658 6,44 L6,5 C6,2.23857625 8.23857625,5.07265313e-16 11,0 L72,8.8817842e-16 C74.7614237,1.30678946e-14 77,2.23857625 77,5 L77,29 L112,29 C114.761424,29 117,31.2385763 117,34 L117,58.869636 C115.713975,58.4868963 114.376323,58.2240317 113,58.0939999 L113,34 C113,33.4477153 112.552285,33 112,33 L46,33 C45.4477153,33 45,33.4477153 45,34 L45,79 C45,79.5522847 45.4477153,80 46,80 L66.5857864,80 C66.8510029,80 67.1053568,80.1053568 67.2928932,80.2928932 L70.7071068,83.7071068 C70.8946432,83.8946432 71.1489971,84 71.4142136,84 L86.5857864,84 C86.8510029,84 87.1053568,83.8946432 87.2928932,83.7071068 L90.086048,80.913952 C90.2139213,82.3292951 90.4822239,83.7041244 90.8769134,85.0243977 L90.8769134,85.0243977 Z M41,53 L33.4145305,53 C33.0450847,52.9521105 32.8552487,52.8552487 32.7071068,52.7071068 L29.2928932,49.2928932 C29.1053568,49.1053568 28.8510029,49 28.5857864,49 L5,49 C4.44771525,49 4,49.4477153 4,50 L4,55 C4,55.5522847 4.44771525,56 5,56 L41,56 L41,53 L41,53 Z M73,29 L73,5 C73,4.44771525 72.5522847,4 72,4 L11,4 C10.4477153,4 10,4.44771525 10,5 L10,44 C10,44.5522847 10.4477153,45 11,45 L30.6402642,45 C30.9080484,45 31.164645,45.1074009 31.3525893,45.2981503 L34.7062343,48.7018497 C34.8941785,48.8925991 35.1507751,49 35.4185593,49 L41,49 L41,34 C41,31.2385763 43.2385763,29 46,29 L73,29 L73,29 Z"
         fill="#151922"
         id="path16" />
      <path
         d="M111,96 C101.611159,96 94,88.3888407 94,79 C94,69.6111593 101.611159,62 111,62 C120.388841,62 128,69.6111593 128,79 C128,88.3888407 120.388841,96 111,96 Z M108.889655,80.5241379 L104.668966,76.3034483 L102.206897,78.7655172 L106.310345,82.9862069 L108.889655,85.4482759 L119.558621,74.662069 L117.096552,72.2 L108.889655,80.5241379 Z"
         fill="#F64F64"
         fill-rule="nonzero"
         id="path18"
         style="fill:#8ca624;fill-opacity:1" />
    </g>
  </g>
</svg>
