<?xml version="1.0" encoding="UTF-8" standalone="no"?>
<svg
   xmlns:dc="http://purl.org/dc/elements/1.1/"
   xmlns:cc="http://creativecommons.org/ns#"
   xmlns:rdf="http://www.w3.org/1999/02/22-rdf-syntax-ns#"
   xmlns:svg="http://www.w3.org/2000/svg"
   xmlns="http://www.w3.org/2000/svg"
   xmlns:sodipodi="http://sodipodi.sourceforge.net/DTD/sodipodi-0.dtd"
   xmlns:inkscape="http://www.inkscape.org/namespaces/inkscape"
   width="88px"
   height="96px"
   viewBox="0 0 88 96"
   version="1.1"
   id="svg2"
   inkscape:version="0.48.5 r10040"
   sodipodi:docname="global_illustrations_features_hide-ip-address.svg">
  <metadata
     id="metadata22">
    <rdf:RDF>
      <cc:Work
         rdf:about="">
        <dc:format>image/svg+xml</dc:format>
        <dc:type
           rdf:resource="http://purl.org/dc/dcmitype/StillImage" />
      </cc:Work>
    </rdf:RDF>
  </metadata>
  <sodipodi:namedview
     pagecolor="#ffffff"
     bordercolor="#666666"
     borderopacity="1"
     objecttolerance="10"
     gridtolerance="10"
     guidetolerance="10"
     inkscape:pageopacity="0"
     inkscape:pageshadow="2"
     inkscape:window-width="1858"
     inkscape:window-height="1057"
     id="namedview20"
     showgrid="false"
     inkscape:zoom="2.4583333"
     inkscape:cx="-19.457627"
     inkscape:cy="48"
     inkscape:window-x="-8"
     inkscape:window-y="-8"
     inkscape:window-maximized="1"
     inkscape:current-layer="g12" />
  <!-- Generator: Sketch 46.2 (44496) - http://www.bohemiancoding.com/sketch -->
  <title
     id="title4">global/illustrations/features/hide-ip-address</title>
  <desc
     id="desc6">Created with Sketch.</desc>
  <defs
     id="defs8" />
  <g
     stroke="none"
     stroke-width="1"
     fill="none"
     fill-rule="evenodd"
     id="g10">
    <g
       fill-rule="nonzero"
       id="g12">
      <path
         d="M32.9607859,82.0520196 L34.9179046,84 L36.8828334,82.044246 C41.505562,82.2644303 45,83.2801939 45,84.5 C45,85.8807119 40.5228475,87 35,87 C29.4771525,87 25,85.8807119 25,84.5 C25,83.2939871 28.4158569,82.2874282 32.9607859,82.0520196 L32.9607859,82.0520196 Z M39.6310767,79.3088349 L43.6128397,75.3456638 C44.5948138,75.4269144 45.5594901,75.5221763 46.5040538,75.6311168 L42.6458238,79.5012384 C41.6585884,79.4216482 40.6524112,79.3573036 39.6310768,79.3088348 L39.6310767,79.3088349 Z M30.2123294,79.3163964 C24.425229,79.6006576 19.13249,80.3951524 15.0257613,81.5846875 C10.4521095,82.9094694 8,84.5887274 8,85.5 C8,86.4112726 10.4521095,88.0905306 15.0257613,89.4153125 C20.2425872,90.9263931 27.3732687,91.8 35,91.8 C42.6267313,91.8 49.7574128,90.9263931 54.9742387,89.4153125 C59.5478905,88.0905306 62,86.4112726 62,85.5 C62,84.6473676 59.8533225,83.1224094 55.8307371,81.8445407 L59.2683082,78.4142233 C64.0594149,80.1846766 67,82.5895244 67,85.5 C67,92.0179164 52.2523304,96 35,96 C17.7476696,96 3,92.0179164 3,85.5 C3,80.1230682 13.0363288,76.4718635 26.235685,75.3583199 L30.2123294,79.3163964 L30.2123294,79.3163964 Z"
         fill="#D0D1D2"
         id="path14" />
      <path
         d="M67.7888032,46.9311533 L67.7888032,46.9311533 C66.0198388,46.9980577 64.2861607,47.3133384 62.5890194,47.8484742 C68.044989,36.5678372 66.0363037,22.5693832 56.5629634,13.2899448 C44.689177,1.47179977 25.1466322,1.47179977 13.298006,13.2651016 C1.46083164,25.0470052 1.46083164,44.4627225 13.298006,56.244626 L34.9179172,77.7635882 L46.1060381,66.6277977 C46.5798505,67.2718451 47.3486684,68.2317533 48.2099569,69.2077628 C48.4535272,69.483776 48.7013075,69.7580615 48.9532216,70.0302175 L34.9179046,84 L10.179828,59.3774319 C-3.393276,45.8677043 -3.393276,23.6420233 10.179828,10.1322957 C23.752932,-3.37743191 46.0828772,-3.37743191 59.6559812,10.1322957 C69.7403519,20.0102578 72.4512925,34.5479034 67.7888032,46.9311533 Z M35,49.1707317 C27.5058824,49.1707317 21.6176471,43.3112195 21.6176471,35.8536585 C21.6176471,28.3960976 27.5058824,22.5365854 35,22.5365854 C42.4941176,22.5365854 48.3823529,28.3960976 48.3823529,35.8536585 C48.3823529,43.3112195 42.4941176,49.1707317 35,49.1707317 Z M35,44.7506065 C40.0577753,44.7506065 43.9622277,40.8652002 43.9622277,35.8536585 C43.9622277,30.8421169 40.0577753,26.9567106 35,26.9567106 C29.9422247,26.9567106 26.0377723,30.8421169 26.0377723,35.8536585 C26.0377723,40.8652002 29.9422247,44.7506065 35,44.7506065 Z"
         fill="#151922"
         id="path16" />
      <path
         d="M82.0098039,46 L84.0490196,48.0349128 L52.0163399,80 L49.8921568,77.8802992 L56.3496732,71.436409 C52.1013072,68.1296758 49.2973856,64.2294264 49.127451,63.9750624 C48.9575163,63.7206983 48.9575163,63.3815461 49.127451,63.21197 C49.4673202,62.7880299 57.9640523,50.9177058 68.5,50.9177058 C70.9640523,50.9177058 73.3431373,51.511222 75.4673202,52.5286783 L82.0098039,46 Z M61.1078432,63.6359103 C61.1078432,64.5685786 61.2777778,65.4164588 61.6176471,66.2643391 L71.2189543,56.7680798 C70.3692811,56.4289276 69.4346405,56.2593516 68.5,56.2593516 C64.4215687,56.2593516 61.1078432,59.5660847 61.1078432,63.6359103 Z M87.872549,63.9750624 C87.5326798,64.4837905 78.9509804,76.2693267 68.5,76.2693267 C66.120915,76.2693267 63.9117647,75.6758104 61.872549,74.7431421 L66.120915,70.5037407 C66.885621,70.7581047 67.6503268,70.9276808 68.5,70.9276808 C72.5784313,70.9276808 75.8921568,67.6209476 75.8921568,63.5511222 C75.8921568,62.7032419 75.7222222,61.9401496 75.4673202,61.1770574 L80.8202615,55.8354115 C84.9836601,59.1421446 87.7026144,62.8728179 87.872549,63.127182 C88.0424837,63.4663342 88.0424837,63.7206983 87.872549,63.9750624 Z"
         fill="#F64F64"
         id="path18"
         style="fill:#8ca624;fill-opacity:1" />
    </g>
  </g>
</svg>
