<?xml version="1.0" encoding="UTF-8" standalone="no"?>
<svg
   xmlns:dc="http://purl.org/dc/elements/1.1/"
   xmlns:cc="http://creativecommons.org/ns#"
   xmlns:rdf="http://www.w3.org/1999/02/22-rdf-syntax-ns#"
   xmlns:svg="http://www.w3.org/2000/svg"
   xmlns="http://www.w3.org/2000/svg"
   xmlns:sodipodi="http://sodipodi.sourceforge.net/DTD/sodipodi-0.dtd"
   xmlns:inkscape="http://www.inkscape.org/namespaces/inkscape"
   width="128px"
   height="96px"
   viewBox="0 0 128 96"
   version="1.1"
   id="svg2"
   inkscape:version="0.48.5 r10040"
   sodipodi:docname="global_illustrations_features_multiple-devices.svg">
  <metadata
     id="metadata22">
    <rdf:RDF>
      <cc:Work
         rdf:about="">
        <dc:format>image/svg+xml</dc:format>
        <dc:type
           rdf:resource="http://purl.org/dc/dcmitype/StillImage" />
      </cc:Work>
    </rdf:RDF>
  </metadata>
  <sodipodi:namedview
     pagecolor="#ffffff"
     bordercolor="#666666"
     borderopacity="1"
     objecttolerance="10"
     gridtolerance="10"
     guidetolerance="10"
     inkscape:pageopacity="0"
     inkscape:pageshadow="2"
     inkscape:window-width="1858"
     inkscape:window-height="1057"
     id="namedview20"
     showgrid="false"
     inkscape:zoom="2.4583333"
     inkscape:cx="0.54237288"
     inkscape:cy="48"
     inkscape:window-x="-8"
     inkscape:window-y="-8"
     inkscape:window-maximized="1"
     inkscape:current-layer="g12" />
  <!-- Generator: Sketch 46.2 (44496) - http://www.bohemiancoding.com/sketch -->
  <title
     id="title4">global/illustrations/features/multiple-devices</title>
  <desc
     id="desc6">Created with Sketch.</desc>
  <defs
     id="defs8" />
  <g
     stroke="none"
     stroke-width="1"
     fill="none"
     fill-rule="evenodd"
     id="g10">
    <g
       id="g12">
      <path
         d="M68,96 L78,96 C80.4189579,96 82.4367116,94.2822403 82.8999819,92 L86,92 C86.5522847,92 87,91.5522847 87,91 L87,86 L115,86 C117.418958,86 119.436712,84.2822403 119.899982,82 L123,82 C123.552285,82 124,81.5522847 124,81 L124,13 C124,12.4477153 123.552285,12 123,12 L120,12 L120,8 L123,8 C125.761424,8 128,10.2385763 128,13 L128,81 C128,83.7614237 125.761424,86 123,86 L91,86 L91,91 C91,93.7614237 88.7614237,96 86,96 L68,96 Z M82,8 L98,8 L98,12 L82,12 L82,8 Z M59,36 L69,36 L69,40 L59,40 L59,36 Z"
         fill="#D0D1D2"
         id="path14" />
      <path
         d="M83,79 L83,82 L115,82 C115.552285,82 116,81.5522847 116,81 L116,5 C116,4.44771525 115.552285,4 115,4 L65,4 C64.4477153,4 64,4.44771525 64,5 L64,28 L78,28 C80.7614237,28 83,30.2385763 83,33 L83,41 L79,41 L79,33 C79,32.4477153 78.5522847,32 78,32 L50,32 C49.4477153,32 49,32.4477153 49,33 L49,91 C49,91.5522847 49.4477153,92 50,92 L78,92 C78.5522847,92 79,91.5522847 79,91 L79,79 L83,79 L83,79 Z M45,77 L5,77 C2.23857625,77 3.38176876e-16,74.7614237 0,72 L0,68 C-3.38176876e-16,65.2385763 2.23857625,63 5,63 L9.10001812,63 C9.03443026,62.6768901 9,62.3424658 9,62 L9,13 C9,10.2385763 11.2385763,8 14,8 L60,8 L60,5 C60,2.23857625 62.2385763,1.24732039e-15 65,7.40076403e-16 L115,0 C117.761424,4.24990989e-15 120,2.23857625 120,5 L120,81 C120,83.7614237 117.761424,86 115,86 L83,86 L83,91 C83,93.7614237 80.7614237,96 78,96 L50,96 C47.2385763,96 45,93.7614237 45,91 L45,77 Z M45,70 L39.3333333,70 C39.1169631,70 38.9064295,69.9298221 38.7333333,69.8 L35.2666667,67.2 C35.0935705,67.0701779 34.8830369,67 34.6666667,67 L5,67 C4.44771525,67 4,67.4477153 4,68 L4,72 C4,72.5522847 4.44771525,73 5,73 L45,73 L45,70 L45,70 Z M45,66 L40.3333333,66 C40.1169631,66 39.9064295,65.9298221 39.7333333,65.8 L36.2666667,63.2 C36.0935705,63.0701779 35.8830369,63 35.6666667,63 L14,63 C13.4477153,63 13,62.5522847 13,62 L13,13 C13,12.4477153 13.4477153,12 14,12 L60,12 L60,28 L50,28 C47.2385763,28 45,30.2385763 45,33 L45,66 Z M64,89 C62.8954305,89 62,88.1045695 62,87 C62,85.8954305 62.8954305,85 64,85 C65.1045695,85 66,85.8954305 66,87 C66,88.1045695 65.1045695,89 64,89 Z"
         fill="#151922"
         id="path16" />
      <path
         d="M85,75 L75,75 C66.8,75 60,68.3 60,60 C60,51.8 66.7,45 75,45 L85,45 C93.2,45 100,51.7 100,60 C100,68.3 93.3,75 85,75 Z M74,60.1958204 C74,61.0776114 74.0629851,63.8489546 75.3856716,65.5705465 C76.3304476,66.7882579 78.0310446,67.8799992 80.4454723,67.8799992 C83.4897508,67.8799992 86.5760193,65.8434818 86.5760193,62.1693527 C86.5760193,59.2300493 84.3505467,56.7946266 81.2222882,56.7946266 C79.8996017,56.7946266 78.5769152,57.2985071 77.5901491,58.4742285 C77.7161192,56.311741 79.1857709,54.1072635 81.7891538,54.1072635 C82.5869647,54.1072635 83.9516413,54.4431839 84.7914422,54.9050744 L86.0091536,51.881791 C84.7494522,51.3149254 83.2168155,51 81.8311439,51 C76.8763183,51 74,54.8000993 74,60.1958204 Z M77.5901491,62.1903477 C77.5901491,60.6157209 78.9548256,59.6709448 80.3824872,59.6709448 C81.9991041,59.6709448 83.1538304,60.699701 83.1538304,62.2113427 C83.1538304,63.6809944 81.936119,64.8147257 80.4034823,64.8147257 C78.9338306,64.8147257 77.5901491,63.7019894 77.5901491,62.1903477 Z"
         fill="#F64F64"
         fill-rule="nonzero"
         id="path18"
         style="fill:#8ca624;fill-opacity:1" />
    </g>
  </g>
</svg>
