<svg xmlns="http://www.w3.org/2000/svg" width="452.235" height="129.563"><g style="line-height:125%" font-size="40" font-weight="400" letter-spacing="0" word-spacing="0" font-family="Sans" fill="red"><path style="line-height:100%;-inkscape-font-specification:Century Gothic Bold" d="M223.422 0v9.25h-3.218v5.438h3.218v19.687h6.282V14.688h3.75V9.25h-3.75V0h-6.282zM356.86 0v9.25h-3.219v5.438h3.219v19.687h6.281V14.688h3.75V9.25h-3.75V0h-6.281zM248.704 8.625c-3.278 0-6.195 1.129-8.72 3.406-2.877 2.616-4.312 5.889-4.312 9.813 0 3.662 1.266 6.781 3.813 9.344 2.547 2.562 5.617 3.843 9.219 3.843 2.446 0 4.687-.588 6.718-1.75 2.032-1.162 3.636-2.781 4.813-4.843 1.177-2.063 1.781-4.287 1.781-6.657a12.9 12.9 0 00-1.75-6.562c-1.17-2.032-2.82-3.659-4.906-4.844-2.085-1.185-4.286-1.75-6.656-1.75zm27.906 0a5.63 5.63 0 00-3.188.969c-.97.646-1.727 1.566-2.312 2.812V9.25h-5.406v25.125h6.25V24.219L271.922 23c0-3.509.362-5.862 1.032-7.062.669-1.2 1.468-1.813 2.437-1.813.477 0 1.105.193 1.844.563l1.937-5.438c-.892-.43-1.747-.625-2.562-.625zm15.156 0a5.63 5.63 0 00-3.187.969c-.97.646-1.76 1.566-2.344 2.812V9.25h-5.375v25.125h6.25V24.219L287.079 23c0-3.509.33-5.862 1-7.062.669-1.2 1.499-1.813 2.468-1.813.477 0 1.074.193 1.813.563l1.969-5.438c-.893-.43-1.747-.625-2.563-.625zm17.531 0c-3.724 0-6.842 1.25-9.312 3.781-2.47 2.532-3.688 5.7-3.688 9.532 0 3.74 1.241 6.858 3.72 9.343 2.477 2.486 5.684 3.75 9.624 3.75 2.54 0 4.716-.474 6.563-1.375 1.846-.9 3.426-2.278 4.75-4.156L315.64 27c-1.693 1.647-3.708 2.469-6.062 2.469-1.97 0-3.575-.509-4.844-1.563-1.27-1.054-2.052-2.496-2.344-4.281h20.25v-1.187c0-4.156-1.241-7.5-3.719-10.032-2.477-2.531-5.67-3.781-9.625-3.781zm32.188 0c-1.216 0-2.4.218-3.563.688-1.162.469-2.475 1.3-3.906 2.5V9.25h-6.25v25.125h6.25V24.281c0-2.616.097-4.309.281-5.093.354-1.509.99-2.709 1.907-3.563.915-.854 2.035-1.281 3.312-1.281.985 0 1.8.265 2.469.781.67.516 1.137 1.265 1.406 2.25.27.985.406 3 .406 6v11h6.22V17.781c0-2.893-.726-5.085-2.188-6.562-1.74-1.74-3.851-2.594-6.344-2.594zm-31.906 5.313c1.615 0 3.026.435 4.25 1.312 1.223.877 2.053 2.037 2.468 3.438h-13.625c.708-1.555 1.45-2.666 2.282-3.282 1.323-.985 2.87-1.468 4.625-1.468zm-60.813.593c2 0 3.653.685 4.938 2.032 1.285 1.346 1.937 3.095 1.937 5.25 0 2.154-.66 3.911-1.969 5.28-1.308 1.37-2.936 2.063-4.906 2.063-1.97 0-3.59-.677-4.875-2.031-1.285-1.354-1.937-3.127-1.937-5.312 0-2.124.637-3.857 1.937-5.22 1.3-1.361 2.92-2.062 4.875-2.062z" fill="#fff" /><path style="line-height:100%;-inkscape-font-specification:Century Gothic Bold" d="M390.797 46.188c-1.108 0-2.059.402-2.843 1.187-.785.785-1.188 1.736-1.188 2.844 0 1.154.395 2.13 1.188 2.937.792.808 1.751 1.219 2.875 1.219 1.092 0 2.027-.395 2.812-1.187.785-.793 1.188-1.752 1.188-2.875 0-1.14-.395-2.106-1.188-2.907-.792-.8-1.736-1.218-2.844-1.218zM300.08 47.28v9.25h-3.25v5.438h3.25v19.687h6.28V61.97h3.72V56.53h-3.72v-9.25h-6.28zm74.78 0v9.25h-3.218v5.438h3.219v19.687h6.281V61.97h3.75V56.53h-3.75v-9.25h-6.281zm-138 8.594c-1.507 0-2.926.306-4.25.875-1.323.57-2.548 1.424-3.687 2.563V56.53h-6.25v34.313h6.25V79c1.231 1.17 2.473 2.016 3.72 2.531 1.246.516 2.584.75 4.03.75 3.247 0 6.068-1.234 8.438-3.75 2.37-2.516 3.562-5.666 3.562-9.406 0-3.878-1.144-7.054-3.437-9.531-2.293-2.478-5.097-3.719-8.375-3.719zm26.47 0a5.63 5.63 0 00-3.188.969c-.97.646-1.759 1.597-2.344 2.844V56.53h-5.406v25.125h6.281V71.5l-.03-1.219c0-3.508.33-5.862 1-7.062.669-1.2 1.498-1.813 2.468-1.813.477 0 1.074.193 1.812.563l1.97-5.438c-.893-.43-1.748-.656-2.563-.656zm17.5 0c-3.278 0-6.195 1.16-8.72 3.438-2.877 2.616-4.312 5.888-4.312 9.812 0 3.663 1.266 6.75 3.813 9.313 2.547 2.562 5.649 3.843 9.25 3.843 2.447 0 4.656-.557 6.687-1.718 2.032-1.162 3.636-2.782 4.813-4.844 1.177-2.062 1.781-4.287 1.781-6.656a12.9 12.9 0 00-1.75-6.563 12.87 12.87 0 00-4.875-4.844c-2.085-1.185-4.317-1.78-6.687-1.781zm44.53 0c-3.723 0-6.842 1.281-9.312 3.813-2.47 2.531-3.687 5.699-3.687 9.53 0 3.74 1.24 6.86 3.719 9.345 2.477 2.485 5.685 3.718 9.625 3.718 2.539 0 4.715-.443 6.562-1.343 1.847-.9 3.427-2.28 4.75-4.157l-5.281-2.5c-1.693 1.647-3.74 2.469-6.094 2.469-1.97 0-3.574-.508-4.844-1.562-1.27-1.055-2.051-2.497-2.343-4.282h20.25V69.72c0-4.155-1.242-7.5-3.72-10.031-2.477-2.532-5.67-3.813-9.624-3.813zm31.47 0c-2.694 0-5.135.58-7.313 1.75s-3.878 2.797-5.094 4.844c-1.215 2.046-1.812 4.287-1.812 6.719 0 3.508 1.25 6.57 3.75 9.187 2.5 2.616 5.958 3.906 10.375 3.906 4.909 0 8.682-1.725 11.375-5.218l-4.938-3.407c-1.57 1.924-3.777 2.875-6.593 2.875-2.278 0-4.1-.677-5.5-2.031-1.4-1.354-2.125-3.08-2.125-5.219 0-2.2.733-3.998 2.187-5.406 1.454-1.408 3.364-2.125 5.719-2.125 1.293 0 2.413.194 3.375.594.962.4 1.952 1.125 2.937 2.156l5.22-2.875a12.798 12.798 0 00-4.876-4.25c-1.985-.993-4.194-1.5-6.687-1.5zm54.656 0c-3.278 0-6.195 1.16-8.719 3.438-2.878 2.616-4.312 5.888-4.312 9.812 0 3.663 1.265 6.75 3.812 9.313 2.547 2.562 5.618 3.843 9.219 3.843 2.447 0 4.687-.557 6.719-1.718 2.031-1.162 3.635-2.782 4.812-4.844 1.177-2.062 1.781-4.287 1.781-6.656a12.9 12.9 0 00-1.75-6.563 12.87 12.87 0 00-4.875-4.844c-2.085-1.185-4.317-1.78-6.687-1.781zm32.219 0c-1.216 0-2.401.25-3.563.719-1.162.47-2.475 1.3-3.906 2.5V56.53h-6.281v25.125h6.28V71.563c0-2.617.097-4.31.282-5.094.354-1.508.99-2.709 1.906-3.563.916-.854 2.004-1.281 3.282-1.281.984 0 1.83.266 2.5.781.669.516 1.137 1.265 1.406 2.25.27.985.406 2.968.406 5.969v11.031h6.219V65.063c0-2.894-.726-5.086-2.188-6.563-1.739-1.739-3.85-2.625-6.343-2.625zm-56.063.656v25.125h6.313V56.531h-6.313zm-62 4.688c1.616 0 3.058.435 4.281 1.312 1.224.878 2.022 2.006 2.438 3.407h-13.625c.708-1.555 1.481-2.635 2.312-3.25 1.324-.985 2.84-1.47 4.594-1.47zm-90.094.5c1.97 0 3.614.685 4.907 2.062 1.292 1.378 1.937 3.127 1.937 5.282 0 2.17-.653 3.974-1.969 5.375-1.315 1.4-2.951 2.093-4.875 2.093-1.985 0-3.63-.685-4.937-2.062-1.308-1.378-1.969-3.206-1.969-5.438 0-2.185.66-3.927 1.969-5.281 1.308-1.354 2.952-2.031 4.937-2.031zm45.375.094c2 0 3.622.684 4.907 2.03 1.285 1.347 1.937 3.096 1.937 5.25 0 2.155-.66 3.912-1.969 5.282-1.308 1.37-2.936 2.063-4.906 2.063-1.97 0-3.59-.678-4.875-2.032-1.285-1.354-1.937-3.127-1.937-5.312 0-2.124.668-3.857 1.968-5.219 1.3-1.362 2.92-2.062 4.875-2.062zm130.657 0c2 0 3.62.684 4.906 2.03 1.285 1.347 1.937 3.096 1.937 5.25 0 2.155-.66 3.912-1.968 5.282-1.309 1.37-2.937 2.063-4.907 2.063-1.97 0-3.59-.678-4.875-2.032-1.285-1.354-1.937-3.127-1.937-5.312 0-2.124.637-3.857 1.937-5.219s2.952-2.062 4.907-2.062z" fill="#c1e277"/><path style="line-height:100%;-inkscape-font-specification:Century Gothic Bold" d="M248.86 103.156c-2.693 0-5.104.58-7.281 1.75-2.178 1.17-3.878 2.797-5.094 4.844a12.937 12.937 0 00-1.844 6.719c0 3.509 1.25 6.571 3.75 9.187 2.5 2.616 5.958 3.907 10.375 3.907 4.91 0 8.713-1.726 11.406-5.22l-4.937-3.405c-1.57 1.923-3.778 2.875-6.594 2.875-2.278 0-4.1-.678-5.5-2.032-1.4-1.354-2.125-3.08-2.125-5.218 0-2.201.733-4.03 2.188-5.438 1.454-1.408 3.364-2.094 5.718-2.094 1.293 0 2.414.194 3.375.594.962.4 1.953 1.125 2.938 2.156l5.219-2.906c-1.262-1.831-2.89-3.226-4.875-4.219-1.986-.992-4.226-1.5-6.72-1.5zm29.094 0c-3.278 0-6.164 1.16-8.688 3.438-2.878 2.616-4.312 5.857-4.312 9.781 0 3.663 1.265 6.782 3.812 9.344 2.547 2.562 5.618 3.844 9.219 3.844 2.447 0 4.687-.589 6.719-1.75a12.68 12.68 0 004.812-4.813c1.177-2.062 1.75-4.286 1.75-6.656 0-2.355-.58-4.563-1.75-6.594-1.17-2.031-2.79-3.628-4.875-4.812-2.085-1.185-4.317-1.782-6.687-1.782zm32.656 0c-1.554 0-2.966.29-4.281.875-1.316.585-2.517 1.472-3.594 2.657v-2.875h-6.344v25.125h6.344V117.75c0-2.416.202-4.19.625-5.312.423-1.124 1.052-2.002 1.906-2.625a4.796 4.796 0 012.875-.938c.939 0 1.713.258 2.375.75.662.493 1.17 1.242 1.5 2.25.33 1.008.5 2.628.5 4.875v12.188h6.344v-11.344c0-2.401.21-4.134.625-5.219.415-1.085 1.052-1.947 1.906-2.562a4.873 4.873 0 012.906-.938c1.416 0 2.48.523 3.188 1.531.708 1.008 1.062 2.934 1.062 5.782v12.75h6.344v-14.75c0-3.017-.314-5.193-.906-6.532-.593-1.339-1.552-2.419-2.906-3.25-1.355-.83-2.934-1.25-4.72-1.25-1.723 0-3.295.387-4.75 1.157-1.453.769-2.686 1.897-3.687 3.375-.77-1.478-1.8-2.606-3.062-3.375-1.262-.77-2.68-1.157-4.25-1.157zm-32.563 5.938c2 0 3.653.684 4.938 2.031 1.285 1.347 1.937 3.096 1.937 5.25s-.66 3.912-1.968 5.281c-1.309 1.37-2.968 2.063-4.938 2.063-1.97 0-3.59-.677-4.875-2.031-1.285-1.355-1.937-3.128-1.937-5.313 0-2.124.668-3.888 1.968-5.25 1.3-1.362 2.92-2.031 4.875-2.031zm-51.937 13.25c-1 0-1.855.362-2.563 1.062-.708.7-1.062 1.531-1.062 2.532 0 1 .354 1.854 1.062 2.562a3.493 3.493 0 002.563 1.063c1 0 1.854-.355 2.562-1.063a3.493 3.493 0 001.063-2.562c0-1-.355-1.832-1.063-2.532s-1.562-1.062-2.562-1.062z" fill="#fff" /><path d="M82.857 104.321c-2.832-.731-5.149-1.132-5.149-.89 0 .24-.61.057-1.355-.409-.745-.465-1.902-.93-2.572-1.032-.67-.101-2.996-1.03-5.17-2.06-3.109-1.476-3.695-2.188-2.743-3.334.665-.801 1.743-1.351 2.396-1.221.652.13 1.336-.495 1.52-1.39.232-1.135-2.913-3.045-10.422-6.327-11.576-5.06-15.89-8.338-13.064-9.925.882-.495 2.646-1.796 3.92-2.892 1.274-1.095 4.181-3.455 6.46-5.243 2.28-1.788 7.822-6.559 12.317-10.6 6.972-6.27 16.21-12.194 20.094-12.886.596-.106 3.035-.774 5.42-1.483 2.384-.71 8.237-1.178 13.006-1.04 8.957.26 10.743.554 16.258 2.685 1.789.691 3.496 1.269 3.794 1.284.298.015.786.35 1.084.744.905 1.197 24.348 16.372 24.93 16.138.297-.12 2.15 1.215 4.117 2.967l3.575 3.186-2.465 1.86c-1.356 1.022-2.721 1.817-3.034 1.766-.312-.052-1.787.422-3.278 1.052-7.16 3.028-20.227 8.128-21.677 8.461-.894.205-4.187 1.335-7.317 2.51-3.13 1.176-5.69 1.906-5.69 1.625 0-.282-.61-.132-1.355.334-.745.465-1.842.956-2.439 1.09-.596.135-2.547.581-4.335.993-9.102 2.094-15.897.925-31.433-5.405-10.255-4.179-16.8-5.788-16.8-4.13 0 1.235 19.858 10.644 24.953 11.823 4.772 1.103 33.042 1.079 37.37-.032 1.789-.46 3.74-.946 4.336-1.082 1.913-.435 11.73-5.369 18.255-9.174 3.483-2.031 6.897-3.815 7.588-3.963.69-.15 2.905-1.01 4.923-1.913 2.017-.903 5.066-1.523 6.774-1.377 5.403.46 3.9-3.236-3.126-7.69-5.669-3.591-18.588-13.675-25.079-19.573-2.71-2.462-12.736-7.7-16.748-8.75-1.288-.338-7.319-.77-13.402-.962-16.086-.508-24.027 2.549-45.215 17.404-13.273 9.305-14.778 10.203-19.304 11.5-2.772.795-3.097.671-2.436-.931.42-1.017.993-2.581 1.275-3.475.281-.895 2.842-2.728 5.69-4.075 2.849-1.347 6.435-3.612 7.97-5.035 1.535-1.422 3.009-2.367 3.276-2.1.266.266 1.516-.826 2.776-2.428 1.26-1.602 2.292-2.6 2.292-2.217s1.34-.492 2.98-1.944c7.026-6.226 8.562-7.422 11.482-8.94 4.328-2.25 5.04-.792 1.212 2.486-2.305 1.974-2.599 2.54-1.042 2.009 1.192-.408 4.789-1.66 7.992-2.785 3.204-1.124 8.081-2.348 10.84-2.719 2.757-.37 5.97-.856 7.138-1.077 1.168-.222 4.092-.697 6.496-1.056 2.404-.358 4.678-1.148 5.053-1.754.392-.634 1.4-.078 2.37 1.308 1.46 2.085 2.117 2.261 4.859 1.305 2.867-1 3.73-.663 9.018 3.515 6.551 5.176 9.454 6.405 11.74 4.97 2.375-1.49.13-3.522-8.89-8.046-20.49-10.277-39.779-8.7-72.575 5.93-12.333 5.503-14.127 6.16-19.538 7.169-2.954.55-2.98.502-2.947-5.258.032-5.348.162-5.645 1.626-3.71 1.474 1.949 2.071 4.199 1.693 6.377-.086.491.28.624.813.295.533-.33 1.282-2.56 1.666-4.958.816-5.102 2.156-5.528 4.337-1.379l1.567 2.98.785-3.25c1.223-5.066 1.68-5.303 3.858-2l2.033 3.083.01-2.98c.012-3.132.67-3.559 3.117-2.009.973.617 2.175.246 3.498-1.076 1.108-1.108 2.734-1.74 3.613-1.402.88.338 2.232.212 3.006-.279.773-.49 1.65-.94 1.948-1 .298-.057 2.006-.714 3.794-1.455 13.636-5.655 40.597-6.93 49.195-2.329.962.514 1.992.907 2.29.872 2.521-.297 17.969 8.646 22.138 12.815.94.94 1.707 1.478 1.707 1.197 0-.281 1.598 1.025 3.55 2.903 1.952 1.878 4.823 4.46 6.38 5.739 4.82 3.958 21.047 10.95 23.942 10.318.447-.097.813.338.813.97 0 .631.454.867 1.009.524.555-.343 1.32-.12 1.7.496.381.615 1.095.87 1.588.566.492-.305 1.16.135 1.482.976.323.841.012 1.746-.699 2.01-2.473.921-12.303-.362-14.857-1.94-1.085-.67-4.981-1.575-9.191-2.132-3.091-.41-3.097-.417-1.785-1.998.949-1.144.482-1.394-2.306-1.236-4.524.257-5.701-.462-3.45-2.107 1.5-1.098 1.115-1.237-2.316-.837l-4.116.48 2.61 2.115c4.263 3.452 11.155 7.19 14.296 7.752 6.897 1.236 6.886 2.074-.113 8.798-3.61 3.467-9.136 8.22-12.28 10.56-3.143 2.341-6.812 5.191-8.153 6.334-1.342 1.142-2.44 1.803-2.44 1.468 0-.334-1.34.315-2.98 1.444-4.121 2.837-14.327 7.397-18.968 8.475-.447.104-.935.287-1.084.407-2.414 1.946-35.283 2.438-42.272.633zm37.561-3.194c1.732-.408 4.049-1.223 5.149-1.812 1.1-.588 2-.826 2-.529 0 .298 2.073-.347 4.607-1.433 2.533-1.086 4.86-1.922 5.17-1.858 1.416.292 19.876-10.873 21.6-13.065 1.065-1.354 2.323-2.112 2.795-1.685.473.426.493.14.043-.638-.648-1.123-1.407-1.018-3.696.51-1.584 1.058-7.514 4.506-13.177 7.663-16.14 8.996-24.369 10.83-46.532 10.366-9.011-.188-13.112.08-12.385.806.598.598 2.215 1.305 3.593 1.57 1.379.266 2.753.73 3.055 1.031.758.758 23.904-.014 27.778-.926zM82.766 97.78c0-.894-.65-1.626-1.445-1.626-1.538 0-1.919 1.333-.722 2.53 1.21 1.21 2.167.81 2.167-.904zm-7.768-1.626c-.368-.596-.885-1.083-1.147-1.083-.263 0-.478.487-.478 1.083s.516 1.084 1.147 1.084c.632 0 .847-.488.478-1.084zm27.906-11.097c.354-1.06 1.056-1.065 3.342-.023 1.743.793 2.949.896 3.03.258.075-.584.258-1.549.407-2.145.149-.596.332-1.402.406-1.791.075-.39 1.111.417 2.304 1.791l2.167 2.5v-2.334c0-2.637.386-2.783 3.268-1.24 1.729.924 2.319.509 3.846-2.71.993-2.092 2.177-3.803 2.632-3.803 1.435 0 3.278 2.87 2.439 3.796-.442.488-.194.536.551.108.745-.43 1.355-.279 1.355.334s.687.85 1.528.527c1.137-.436 1.296-1.394.621-3.745-1.077-3.757.366-5.14 2.383-2.284 1.279 1.81 4.546 2.303 5.952.897.292-.292-.021-1.562-.696-2.823-1.281-2.393-.958-2.452 5.386-.98 1.984.46 1.643-2.821-.666-6.42-2.176-3.39-9.724-8.694-14.084-9.898-1.987-.549-5.127-2.075-6.976-3.392l-3.362-2.394.222 4.737c.327 6.965.288 7.057-4.128 9.74-5.074 3.083-5.608 3.87-4.98 7.336.65 3.581.894 3.77 2.684 2.074.816-.773 3.252-2.727 5.415-4.34 2.751-2.054 4.368-4.415 5.388-7.869 1.763-5.973 3.767-5.845 3.477.22-.416 8.698-4.56 14.601-11.307 16.107-1.415.316-6.098.71-10.407.877-6.619.255-8.495-.092-12.1-2.242-4.17-2.487-8.765-9.708-9.51-14.946a69.413 69.413 0 00-.799-4.388c-.265-1.192-.52-2.577-.565-3.078-.066-.723-10.4 7.892-18.224 15.195-1.502 1.4-1.844 3.61-.556 3.583 1.344-.028 3.005-1.461 4.898-4.23l1.792-2.619 1.126 2.961c.619 1.63 1.133 3.784 1.142 4.788.011 1.004.456 2.52.992 3.367.719 1.136 1.33.279 2.319-3.251l1.343-4.793 1.352 4.878c.784 2.828 1.397 3.867 1.458 2.472.074-1.667.604-2.214 1.727-1.783.89.342 1.435.936 1.21 1.32-.224.386.058 1.92.627 3.41l1.036 2.71 1.677-3.794 1.678-3.794 2.112 4.683c2.07 4.592 2.161 4.65 4.709 2.98 3.475-2.276 3.693-2.21 5.003 1.55 1.184 3.397 2.593 4.199 3.356 1.91zM60.79 74.934c.377-.982-.118-1.542-1.361-1.542-2.498 0-3.395.915-2.692 2.747.664 1.73 3.218.97 4.053-1.205zm46.788-3.395c-.333-.867-.605-2.268-.605-3.113 0-1.592-6.428-2.3-6.584-.725-.044.447-.28 1.876-.523 3.176-.484 2.577 1.458 3.475 5.815 2.69 1.653-.299 2.297-.987 1.897-2.028zM97 67.214c.677-2.205 1.104-4.136.948-4.291-.155-.156-1.535.795-3.066 2.112-2.26 1.946-2.558 2.751-1.584 4.292 1.725 2.73 2.32 2.39 3.702-2.113zm-1.95-9.599c0-.335-.61-.229-1.356.237-.745.465-2.009.945-2.809 1.066-2.457.372-2.762 1.36-1.277 4.135l1.426 2.665 2.007-3.747c1.105-2.06 2.008-4.02 2.008-4.356zm-3.883-2.224c1.815-.696 2.42-4.761.708-4.761-1.615 0-4.49 3.332-3.817 4.423.728 1.178.878 1.195 3.109.338zm20.363-3.937c-1.19-1.19-2.794-1.954-3.564-1.697-.993.33-.699 1.168 1.01 2.877 1.326 1.326 2.93 2.09 3.564 1.698.736-.455.37-1.497-1.01-2.878z" fill="#fff"/><path d="M14.264 18.576L198 107.707M14.264 18.576L198 107.707" fill="none" stroke="#fff" stroke-width="4.3789394999999995" stroke-linecap="round"/></g></svg>
