<svg xmlns="http://www.w3.org/2000/svg" width="188.367" height="93.631"><g style="line-height:125%" font-size="40" font-weight="400" letter-spacing="0" word-spacing="0" font-family="Sans" fill="red"><path d="M70.857 87.962c-2.832-.731-5.149-1.132-5.149-.891 0 .241-.61.058-1.355-.408-.745-.466-1.902-.93-2.572-1.032-.67-.101-2.996-1.03-5.17-2.061-3.109-1.475-3.695-2.187-2.743-3.333.665-.801 1.743-1.351 2.396-1.221.652.13 1.336-.495 1.52-1.39.232-1.135-2.913-3.045-10.422-6.327-11.576-5.06-15.89-8.338-13.064-9.925.882-.495 2.646-1.796 3.92-2.892 1.274-1.095 4.181-3.455 6.46-5.243 2.28-1.789 7.822-6.559 12.317-10.6 6.972-6.271 16.21-12.194 20.094-12.886.596-.106 3.035-.774 5.42-1.484 2.384-.71 8.237-1.177 13.006-1.039 8.957.26 10.743.554 16.258 2.685 1.789.691 3.496 1.269 3.794 1.284.298.015.786.35 1.084.744.905 1.197 24.348 16.372 24.93 16.138.297-.12 2.15 1.215 4.117 2.967l3.575 3.186-2.465 1.86c-1.356 1.022-2.721 1.817-3.034 1.766-.312-.052-1.787.422-3.278 1.052-7.16 3.028-20.227 8.128-21.677 8.461-.894.205-4.187 1.335-7.317 2.51-3.13 1.176-5.69 1.906-5.69 1.625 0-.282-.61-.132-1.355.333-.745.466-1.842.957-2.439 1.091-.596.135-2.547.581-4.335.993-9.102 2.093-15.897.925-31.433-5.405-10.255-4.179-16.8-5.788-16.8-4.13 0 1.235 19.858 10.644 24.953 11.823 4.772 1.103 33.042 1.079 37.37-.032 1.789-.46 3.74-.946 4.336-1.082 1.913-.435 11.73-5.369 18.255-9.174 3.483-2.032 6.897-3.815 7.588-3.964.69-.148 2.905-1.009 4.923-1.912 2.017-.903 5.066-1.523 6.774-1.377 5.403.46 3.9-3.236-3.126-7.69-5.669-3.591-18.588-13.675-25.079-19.573-2.71-2.463-12.736-7.7-16.748-8.75-1.288-.338-7.319-.77-13.402-.963-16.086-.507-24.027 2.55-45.215 17.405-13.273 9.305-14.778 10.202-19.304 11.5-2.772.795-3.097.671-2.436-.932.42-1.017.993-2.58 1.275-3.475.281-.894 2.842-2.727 5.69-4.074 2.849-1.347 6.435-3.612 7.97-5.035 1.535-1.422 3.009-2.367 3.276-2.1.266.266 1.516-.826 2.776-2.428 1.26-1.602 2.292-2.6 2.292-2.217s1.34-.492 2.98-1.944c7.026-6.226 8.562-7.422 11.482-8.94 4.328-2.25 5.04-.792 1.212 2.486-2.305 1.974-2.599 2.54-1.042 2.008 1.192-.407 4.789-1.66 7.992-2.784 3.204-1.124 8.081-2.348 10.84-2.719 2.757-.37 5.97-.856 7.138-1.077 1.168-.222 4.092-.697 6.496-1.056 2.404-.358 4.678-1.148 5.053-1.754.392-.634 1.4-.078 2.37 1.308 1.46 2.085 2.117 2.261 4.859 1.305 2.867-1 3.73-.663 9.018 3.515 6.551 5.176 9.454 6.405 11.74 4.97 2.375-1.49.13-3.522-8.89-8.046-20.49-10.277-39.779-8.7-72.575 5.93-12.333 5.502-14.127 6.16-19.538 7.169-2.954.55-2.98.502-2.947-5.258.032-5.348.162-5.645 1.626-3.71 1.474 1.949 2.071 4.199 1.693 6.377-.086.491.28.624.813.295.533-.33 1.282-2.56 1.666-4.958.816-5.102 2.156-5.528 4.337-1.379l1.567 2.98.785-3.25c1.223-5.066 1.68-5.303 3.858-2l2.033 3.083.01-2.981c.012-3.131.67-3.558 3.117-2.008.973.616 2.175.246 3.498-1.076 1.108-1.108 2.734-1.74 3.613-1.402.88.338 2.232.212 3.006-.279.773-.49 1.65-.94 1.948-1 .298-.057 2.006-.714 3.794-1.455 13.636-5.655 40.597-6.93 49.195-2.33.962.515 1.992.908 2.29.872 2.521-.296 17.969 8.647 22.138 12.816.94.94 1.707 1.477 1.707 1.197 0-.281 1.598 1.025 3.55 2.903 1.952 1.878 4.823 4.46 6.38 5.739 4.82 3.958 21.047 10.95 23.942 10.318.447-.097.813.338.813.97 0 .631.454.867 1.009.524.555-.343 1.32-.12 1.7.495.381.616 1.095.87 1.588.566.492-.304 1.16.135 1.482.977.323.841.012 1.746-.699 2.01-2.473.921-12.303-.362-14.857-1.94-1.085-.67-4.981-1.575-9.191-2.132-3.091-.41-3.097-.417-1.785-1.998.949-1.144.482-1.394-2.306-1.236-4.524.257-5.701-.462-3.45-2.107 1.5-1.098 1.115-1.237-2.316-.837l-4.116.48 2.61 2.115c4.263 3.452 11.155 7.189 14.296 7.752 6.897 1.236 6.886 2.074-.113 8.798-3.61 3.467-9.136 8.22-12.28 10.56-3.143 2.341-6.812 5.191-8.153 6.334-1.342 1.142-2.44 1.803-2.44 1.468 0-.334-1.34.315-2.98 1.444-4.121 2.837-14.327 7.397-18.968 8.474-.447.104-.935.288-1.084.408-2.414 1.946-35.283 2.438-42.272.633zm37.561-3.194c1.732-.408 4.049-1.223 5.149-1.812 1.1-.589 2-.827 2-.529 0 .298 2.073-.347 4.607-1.433 2.533-1.086 4.86-1.922 5.17-1.858 1.416.292 19.876-10.874 21.6-13.065 1.065-1.354 2.323-2.112 2.795-1.685.473.426.493.14.043-.638-.648-1.124-1.407-1.019-3.696.51-1.584 1.058-7.514 4.506-13.177 7.663-16.14 8.996-24.369 10.83-46.532 10.366-9.011-.188-13.112.08-12.385.806.598.598 2.215 1.304 3.593 1.57 1.379.266 2.753.73 3.055 1.031.758.758 23.904-.014 27.778-.926zM70.766 81.42c0-.894-.65-1.626-1.445-1.626-1.538 0-1.919 1.333-.722 2.53 1.21 1.21 2.167.81 2.167-.904zm-7.768-1.626c-.368-.596-.885-1.084-1.147-1.084-.263 0-.478.488-.478 1.084 0 .596.516 1.084 1.147 1.084.632 0 .847-.488.478-1.084zm27.906-11.097c.354-1.06 1.056-1.065 3.342-.024 1.743.794 2.949.897 3.03.259.075-.584.258-1.549.407-2.145.149-.596.332-1.402.406-1.792.075-.389 1.111.418 2.304 1.792l2.167 2.5v-2.334c0-2.637.386-2.783 3.268-1.241 1.729.925 2.319.51 3.846-2.71.993-2.091 2.177-3.802 2.632-3.802 1.435 0 3.278 2.87 2.439 3.796-.442.488-.194.536.551.108.745-.43 1.355-.279 1.355.334 0 .612.687.85 1.528.527 1.137-.436 1.296-1.394.621-3.745-1.077-3.757.366-5.14 2.383-2.284 1.279 1.81 4.546 2.303 5.952.896.292-.291-.021-1.561-.696-2.822-1.281-2.393-.958-2.452 5.386-.98 1.984.46 1.643-2.821-.666-6.42-2.176-3.39-9.724-8.694-14.084-9.898-1.987-.549-5.127-2.075-6.976-3.392l-3.362-2.394.222 4.737c.327 6.965.288 7.056-4.128 9.74-5.074 3.083-5.608 3.87-4.98 7.335.65 3.582.894 3.771 2.684 2.075.816-.773 3.252-2.727 5.415-4.34 2.751-2.054 4.368-4.415 5.388-7.869 1.763-5.973 3.767-5.845 3.477.22-.416 8.698-4.56 14.601-11.307 16.107-1.415.316-6.098.71-10.407.877-6.619.255-8.495-.093-12.1-2.242-4.17-2.487-8.765-9.708-9.51-14.946a69.413 69.413 0 00-.799-4.388c-.265-1.192-.52-2.577-.565-3.078-.066-.724-10.4 7.892-18.224 15.194-1.502 1.402-1.844 3.61-.556 3.584 1.344-.028 3.005-1.461 4.898-4.23l1.792-2.62 1.126 2.962c.619 1.63 1.133 3.783 1.142 4.788.011 1.004.456 2.52.992 3.367.719 1.135 1.33.279 2.319-3.251l1.343-4.793 1.352 4.877c.784 2.83 1.397 3.868 1.458 2.473.074-1.667.604-2.214 1.727-1.783.89.342 1.435.936 1.21 1.32-.224.385.058 1.92.627 3.41l1.036 2.71 1.677-3.794 1.678-3.794 2.112 4.683c2.07 4.592 2.161 4.65 4.709 2.98 3.475-2.277 3.693-2.21 5.003 1.55 1.184 3.397 2.593 4.199 3.356 1.91zM48.79 58.575c.377-.982-.118-1.542-1.361-1.542-2.498 0-3.395.915-2.692 2.747.664 1.73 3.218.97 4.053-1.205zm46.788-3.395c-.333-.867-.605-2.268-.605-3.114 0-1.591-6.428-2.298-6.584-.724-.044.447-.28 1.876-.523 3.176-.484 2.577 1.458 3.475 5.815 2.689 1.653-.298 2.297-.986 1.897-2.027zM85 50.855c.677-2.205 1.104-4.136.948-4.292-.155-.155-1.535.796-3.066 2.113-2.26 1.946-2.558 2.751-1.584 4.292 1.725 2.73 2.32 2.39 3.702-2.113zm-1.95-9.599c0-.335-.61-.229-1.356.237-.745.465-2.009.945-2.809 1.066-2.457.372-2.762 1.36-1.277 4.135l1.426 2.664 2.007-3.746c1.105-2.06 2.008-4.02 2.008-4.356zm-3.883-2.224c1.815-.696 2.42-4.761.708-4.761-1.615 0-4.49 3.332-3.817 4.423.728 1.178.878 1.194 3.109.338zm20.363-3.937c-1.19-1.19-2.794-1.954-3.564-1.697-.993.33-.699 1.168 1.01 2.877 1.326 1.326 2.93 2.09 3.564 1.697.736-.454.37-1.496-1.01-2.877z" fill="#fff"/><path d="M2.264 2.217L186 91.348M2.264 2.217L186 91.348" fill="none" stroke="#fff" stroke-width="4.3789394999999995" stroke-linecap="round"/></g></svg>